<svg class="img-fluid" id="outputsvg" xmlns="http://www.w3.org/2000/svg" style="transform: none; transform-origin: 50% 50% 0px; cursor: move; transition: none;" width="260" height="260" viewBox="0 0 2600 2600"><g id="l2Kv0rxHxIT6plcZjpn1RTk" fill="rgb(255,255,255)" style="transform: none;"><g><path id="p6BedMBFI" d="M1173 2431 c25 -30 44 -121 32 -152 -3 -8 -38 -26 -78 -38 -282 -90 -470 -238 -581 -458 -124 -247 -109 -558 40 -855 111 -220 388 -541 657 -762 l47 -39 39 27 c90 63 291 254 400 381 349 405 474 790 370 1131 -82 269 -288 461 -604 564 -55 18 -104 36 -109 41 -5 4 -10 35 -13 69 -6 105 -25 120 -150 120 l-75 0 25 -29z m52 -401 c-1 -52 -4 -116 -8 -142 -13 -76 -72 -154 -204 -269 -200 -174 -325 -306 -353 -371 -37 -85 -41 -80 -60 62 -22 161 9 326 87 460 56 96 191 227 283 275 84 43 205 86 235 82 18 -2 20 -9 20 -97z m262 75 c205 -65 399 -240 474 -427 38 -95 60 -271 43 -335 -9 -31 -18 -29 -36 10 -28 58 -115 156 -318 358 -217 215 -248 258 -258 361 -3 38 -1 58 6 58 6 0 46 -11 89 -25z m84 -502 c321 -325 384 -448 315 -615 -26 -63 -84 -158 -96 -158 -4 0 -15 19 -25 43 -29 73 -100 168 -225 302 -157 169 -166 185 -173 305 -7 104 2 310 13 310 3 0 90 -84 191 -187z m-337 -14 c12 -64 7 -309 -8 -337 -8 -15 -66 -76 -128 -137 -120 -116 -193 -215 -224 -302 -10 -29 -21 -53 -24 -53 -3 0 -31 37 -60 83 l-55 82 0 85 c0 155 52 230 340 485 77 68 143 124 146 124 4 1 9 -13 13 -30z m343 -667 c59 -82 83 -147 83 -224 l0 -62 -130 -128 c-71 -70 -135 -128 -143 -128 -12 0 -16 42 -22 230 -6 216 1 503 13 524 7 13 140 -129 199 -212z m-343 103 c8 -22 2 -632 -6 -641 -19 -18 -188 138 -218 202 -29 59 -25 156 10 229 22 45 182 225 200 225 4 0 10 -7 14 -15z"></path></g></g></svg>
